Coordinates
version=1
nRows=27
nColumns=12
inDegrees=yes

Units are S.I. units (second, meters, Newtons, ...)
Angles are in degrees

endheader
time	SC_y	SC_z	SC_x	AC_y	AC_z	AC_x	GH_y	GH_z	GH_yy	EL_x	PS_y
       0.0              -17.63        -0.8966          46.42          33.35          4.546          3.668         -103.2          -12.8         -173.9          125.0          138.0
   0.01595              -17.64        -0.8925          46.42          33.35          4.545          3.668         -103.2         -12.79         -173.9          125.0          138.0
   0.03189              -17.64        -0.8882          46.42          33.35          4.545          3.667         -103.2         -12.78         -173.8          125.0          138.0
   0.04784              -17.64        -0.8836          46.42          33.36          4.544          3.667         -103.2         -12.77         -173.8          125.0          138.0
   0.06378              -17.64        -0.8787          46.42          33.36          4.543          3.666         -103.2         -12.76         -173.7          125.0          138.0
   0.07973              -17.65        -0.8734          46.43          33.36          4.542          3.665         -103.1         -12.75         -173.7          125.0          138.0
   0.09568              -17.65        -0.8678          46.43          33.36           4.54          3.665         -103.1         -12.74         -173.6          125.0          138.0
    0.1116              -17.65        -0.8619          46.43          33.37          4.539          3.664         -103.1         -12.73         -173.5          125.0          138.0
    0.1276              -17.65        -0.8554          46.43          33.37          4.538          3.663         -103.1         -12.72         -173.5          125.0          137.9
    0.1435              -17.66        -0.8486          46.44          33.37          4.537          3.663         -103.1          -12.7         -173.4          125.0          137.9
    0.1595              -17.66        -0.8412          46.44          33.38          4.535          3.662         -103.1         -12.69         -173.3          125.0          137.9
    0.1754              -17.66        -0.8332          46.44          33.38          4.534          3.661         -103.1         -12.67         -173.3          125.0          137.9
    0.1914              -17.67        -0.8247          46.45          33.39          4.532           3.66         -103.1         -12.65         -173.2          125.0          137.9
    0.2073              -17.67        -0.8154          46.45          33.39           4.53          3.659         -103.1         -12.64         -173.1          125.0          137.8
    0.2232              -17.68        -0.8054          46.45           33.4          4.528          3.658         -103.1         -12.62         -173.0          125.0          137.8
    0.2392              -17.68        -0.7946          46.46           33.4          4.526          3.657         -103.1         -12.59         -172.9          125.0          137.8
    0.2551              -17.69        -0.7828          46.46          33.41          4.523          3.655         -103.1         -12.57         -172.7          125.0          137.8
    0.2711               -17.7        -0.7699          46.47          33.42          4.521          3.654         -103.1         -12.55         -172.6          125.0          137.7
     0.287               -17.7        -0.7559          46.47          33.43          4.518          3.652         -103.0         -12.52         -172.4          125.0          137.7
     0.303              -17.71        -0.7405          46.48          33.43          4.515          3.651         -103.0         -12.49         -172.3          125.0          137.7
    0.3189              -17.72        -0.7236          46.49          33.44          4.512          3.649         -103.0         -12.45         -172.1          125.0          137.6
    0.3349              -17.73        -0.7051          46.49          33.45          4.508          3.647         -103.0         -12.42         -171.9          124.9          137.6
    0.3508              -17.74        -0.6846           46.5          33.47          4.504          3.644         -103.0         -12.37         -171.7          124.9          137.5
    0.3668              -17.75        -0.6618          46.51          33.48          4.499          3.642         -103.0         -12.33         -171.5          124.9          137.5
    0.3827              -17.76        -0.6366          46.52          33.49          4.494          3.639         -102.9         -12.28         -171.2          124.9          137.4
    0.3987              -17.77        -0.6084          46.53          33.51          4.489          3.636         -102.9         -12.22         -170.9          124.9          137.3
    0.4146              -17.79        -0.5768          46.55          33.52          4.482          3.632         -102.9         -12.16         -170.6          124.9          137.3
